<?xml version="1.0" standalone="no"?>
<!DOCTYPE svg PUBLIC "-//W3C//DTD SVG 20010904//EN"
 "http://www.w3.org/TR/2001/REC-SVG-20010904/DTD/svg10.dtd">
<svg version="1.0" xmlns="http://www.w3.org/2000/svg"
 width="300.000000pt" height="200.000000pt" viewBox="0 0 300.000000 200.000000"
 preserveAspectRatio="xMidYMid meet">
<metadata>
Created by potrace 1.10, written by Peter Selinger 2001-2011
</metadata>
<g transform="translate(0.000000,200.000000) scale(0.100000,-0.100000)"
fill="#000000" stroke="none">
<path d="M726 1215 c-18 -19 -33 -25 -64 -25 -32 0 -45 -6 -62 -27 -20 -26
-21 -37 -18 -170 3 -121 6 -145 21 -160 16 -16 39 -18 216 -18 258 0 241 -13
241 187 0 176 -6 188 -90 188 -37 0 -50 4 -50 15 0 23 -34 35 -105 35 -58 0
-69 -3 -89 -25z m-56 -97 c-12 -18 -24 -41 -27 -50 -9 -31 -23 -19 -23 20 0
44 14 62 48 62 l24 0 -22 -32z m230 17 c50 -26 84 -80 84 -133 -1 -112 -95
-181 -206 -151 -83 22 -131 104 -109 187 10 36 60 94 91 105 31 11 112 6 140
-8z m104 9 c16 -6 23 -64 8 -64 -8 0 -52 54 -52 65 0 7 25 6 44 -1z m-364
-218 c0 -8 6 -19 14 -25 19 -16 27 -49 11 -47 -27 4 -45 29 -45 63 0 20 4 32
10 28 6 -3 10 -12 10 -19z m380 -26 c0 -23 -6 -33 -22 -39 -13 -5 -24 -7 -26
-6 -5 5 37 73 46 75 1 0 2 -14 2 -30z"/>
<path d="M754 1104 c-26 -12 -64 -59 -64 -78 0 -11 109 -6 115 5 4 6 -3 22
-16 35 -20 21 -21 26 -9 34 24 15 67 12 74 -6 9 -23 8 -27 -9 -21 -8 4 -17 2
-19 -2 -6 -9 15 -61 25 -61 3 0 15 21 28 47 18 37 20 48 9 54 -21 14 -101 10
-134 -7z"/>
<path d="M910 1067 c0 -7 -11 -28 -25 -47 -29 -39 -25 -49 10 -30 20 10 27 11
40 0 24 -20 30 14 11 55 -17 35 -36 47 -36 22z"/>
<path d="M690 980 c0 -26 21 -71 32 -68 5 2 20 22 34 46 l25 42 -45 0 c-39 0
-46 -3 -46 -20z"/>
<path d="M761 941 c-15 -29 -19 -47 -13 -53 11 -11 102 -24 102 -15 0 3 -10
22 -22 40 -13 19 -28 43 -34 53 -10 17 -13 15 -33 -25z"/>
<path d="M841 953 c-11 -20 21 -73 44 -73 14 0 75 65 75 80 0 6 -25 10 -55 10
-41 0 -56 -4 -64 -17z"/>
<path d="M2208 1186 c-10 -7 -21 -27 -24 -45 -4 -17 -13 -31 -20 -31 -8 0 -14
-10 -14 -25 0 -17 5 -25 18 -25 15 0 17 -9 14 -80 l-4 -80 31 0 31 0 0 80 c0
73 2 80 20 80 15 0 20 7 20 25 0 18 -5 25 -20 25 -13 0 -20 7 -20 20 0 13 7
20 20 20 15 0 20 7 20 25 0 21 -5 25 -27 25 -16 0 -36 -7 -45 -14z"/>
<path d="M1170 1046 l0 -146 30 0 c29 0 30 1 30 50 l0 50 43 0 c23 0 50 6 59
14 42 32 44 107 3 146 -17 16 -40 22 -94 27 l-71 6 0 -147z m122 77 c10 -9 18
-23 18 -31 0 -24 -31 -52 -57 -52 -21 0 -23 4 -23 50 0 45 2 50 22 50 12 0 30
-7 40 -17z"/>
<path d="M1385 1045 l0 -145 27 0 c27 0 27 1 30 71 3 75 17 99 52 86 13 -5 16
-21 16 -82 l0 -75 30 0 30 0 0 74 c0 91 -11 123 -47 137 -22 8 -32 6 -56 -12
l-29 -21 4 56 3 56 -30 0 -30 0 0 -145z"/>
<path d="M1834 1168 c-3 -4 -2 -19 2 -33 5 -21 3 -25 -15 -25 -16 0 -21 -6
-21 -25 0 -18 5 -25 20 -25 19 0 20 -6 19 -69 -1 -38 2 -74 5 -80 4 -6 25 -11
47 -11 34 0 39 3 39 24 0 17 -5 23 -17 22 -15 -1 -19 9 -21 57 -3 52 -1 57 18
57 15 0 20 6 20 25 0 18 -5 25 -20 25 -16 0 -20 7 -20 33 0 28 -3 32 -26 32
-14 0 -28 -3 -30 -7z"/>
<path d="M1652 1105 c-37 -16 -52 -48 -52 -111 0 -61 34 -94 97 -94 36 0 50 6
74 29 51 52 32 148 -36 177 -41 17 -42 17 -83 -1z m72 -50 c34 -35 26 -97 -14
-110 -52 -17 -84 77 -38 109 28 20 33 20 52 1z"/>
<path d="M2003 1105 c-38 -16 -63 -60 -63 -110 0 -84 113 -129 172 -70 81 81
-6 225 -109 180z m67 -55 c26 -26 26 -72 0 -95 -17 -15 -24 -16 -45 -7 -34 16
-38 85 -7 110 22 16 29 15 52 -8z"/>
<path d="M2293 1093 c3 -10 20 -59 38 -110 27 -76 30 -95 19 -108 -7 -8 -21
-15 -32 -15 -14 0 -19 -6 -16 -22 4 -26 24 -30 64 -13 27 11 35 26 74 136 24
68 45 130 48 137 3 10 -4 13 -29 10 -33 -3 -34 -5 -49 -65 -8 -35 -17 -63 -20
-63 -3 0 -14 29 -24 65 -17 61 -20 65 -48 65 -24 0 -29 -4 -25 -17z"/>
</g>
</svg>
